HIERARCHY
ROOT hip
{
	OFFSET 0.000000 0.000000 0.000000
	CHANNELS 6 Xposition Yposition Zposition Xrotation Zrotation Yrotation 
	JOINT abdomen
	{
		OFFSET 0.000000 3.422050 0.000000
		CHANNELS 3 Xrotation Zrotation Yrotation 
		JOINT chest
		{
			OFFSET 0.000000 8.486693 -0.684411
			CHANNELS 3 Xrotation Zrotation Yrotation 
			JOINT neck
			{
				OFFSET 0.000000 10.266162 -0.273764
				CHANNELS 3 Xrotation Zrotation Yrotation 
				JOINT head
				{
					OFFSET 0.000000 3.148285 0.000000
					CHANNELS 3 Xrotation Zrotation Yrotation 
					End Site
					{
						OFFSET 0.000000 3.148289 0.000000
					}
				}
			}
			JOINT lCollar
			{
				OFFSET 3.422053 6.707223 -0.821293
				CHANNELS 3 Yrotation Zrotation Xrotation 
				JOINT lShldr
				{
					OFFSET 3.285171 0.000000 0.000000
					CHANNELS 3 Zrotation Yrotation Xrotation 
					JOINT lForeArm
					{
						OFFSET 10.129278 0.000000 0.000000
						CHANNELS 3 Yrotation Zrotation Xrotation 
						JOINT lHand
						{
							OFFSET 8.486692 0.000000 0.000000
							CHANNELS 3 Zrotation Yrotation Xrotation 
							End Site
							{
								OFFSET 4.106464 0.000000 0.000000
							}
						}
					}
				}
			}
			JOINT rCollar
			{
				OFFSET -3.558935 6.707223 -0.821293
				CHANNELS 3 Yrotation Zrotation Xrotation 
				JOINT rShldr
				{
					OFFSET -3.148289 0.000000 0.000000
					CHANNELS 3 Zrotation Yrotation Xrotation 
					JOINT rForeArm
					{
						OFFSET -10.266159 0.000000 0.000000
						CHANNELS 3 Yrotation Zrotation Xrotation 
						JOINT rHand
						{
							OFFSET -8.349810 0.000000 0.000000
							CHANNELS 3 Zrotation Yrotation Xrotation 
							End Site
							{
								OFFSET -4.106464 0.000000 0.000000
							}
						}
					}
				}
			}
		}
	}
	JOINT lThigh
	{
		OFFSET 5.338403 -1.642589 1.368821
		CHANNELS 3 Xrotation Zrotation Yrotation 
		JOINT lShin
		{
			OFFSET -2.053232 -20.121670 0.000000
			CHANNELS 3 Xrotation Zrotation Yrotation 
			JOINT lFoot
			{
				OFFSET 0.000000 -19.300380 -1.231939
				CHANNELS 3 Xrotation Yrotation Zrotation 
				End Site
				{
					OFFSET 0.000000 -2.463878 4.653993
				}
			}
		}
	}
	JOINT rThigh
	{
		OFFSET -5.338403 -1.642589 1.368821
		CHANNELS 3 Xrotation Zrotation Yrotation 
		JOINT rShin
		{
			OFFSET 2.053232 -20.121670 0.000000
			CHANNELS 3 Xrotation Zrotation Yrotation 
			JOINT rFoot
			{
				OFFSET 0.000000 -19.300380 -1.231939
				CHANNELS 3 Xrotation Yrotation Zrotation 
				End Site
				{
					OFFSET 0.000000 -2.463878 4.653993
				}
			}
		}
	}
}
MOTION
Frames: 15
Frame Time: 0.049954
0.000000 43.528500 0.000000 0.000000 0.000000 0.000000 0.000000 0.000000 0.000000 0.000000 0.000000 0.000000 0.000000 0.000000 0.000000 0.000000 0.000000 0.000000 0.000000 0.000000 0.000000 0.000000 0.000000 0.000000 0.000000 0.000000 0.000000 0.000000 0.000000 0.000000 0.000000 0.000000 0.000000 0.000000 0.000000 0.000000 0.000000 0.000000 0.000000 0.000000 0.000000 0.000000 0.000000 0.000000 0.000000 0.000000 0.000000 0.000000 0.000000 0.000000 0.000000 0.000000 0.000000 0.000000 0.000000 0.000000 0.000000 0.000000 0.000000 0.000000 
0.000000 3.996296 -36.005806 -90.001877 0.000000 0.000000 23.538109 0.000000 0.000000 19.257391 -0.120320 -0.639379 17.998348 0.000000 0.000000 8.998567 0.000000 0.000000 8.607481 0.661943 0.337705 -76.760849 30.290161 0.731476 -75.001434 -0.002089 33.998486 -7.002601 0.199413 23.599224 -8.610972 -0.665439 0.337423 76.742165 -30.292879 0.734295 74.998512 -0.001709 34.000713 6.998461 -0.202121 23.599018 -52.724010 33.008018 -27.599346 100.346809 -2.290713 -0.122987 18.679829 1.727570 5.011420 -52.725376 -33.012634 27.598396 100.346718 2.291162 0.118062 18.679640 -1.731586 -5.014312 
0.000000 3.996296 -36.005806 -90.001877 0.000000 0.000000 24.412802 0.000000 0.000000 16.889572 -0.120200 -0.639249 17.611328 0.000000 0.000000 8.519946 0.000000 0.000000 9.154399 0.750214 1.304300 -76.472435 30.246794 0.845387 -75.001427 -0.002086 33.998482 -7.522112 0.321187 24.097773 -9.348864 -0.885391 1.329149 76.699951 -30.274063 0.749955 74.932228 -0.134183 33.999424 7.617088 -0.223265 24.247362 -52.541836 32.619358 -27.823301 100.346809 -2.290713 -0.122988 18.753902 1.934328 4.511537 -52.421665 -32.412933 27.937963 100.346718 2.291162 0.118062 18.802959 -2.060176 -4.228606 
0.000000 3.996296 -36.005806 -90.001877 0.000000 0.000000 25.287806 0.000000 0.000000 14.515643 -0.120073 -0.639123 17.223898 0.000000 0.000000 8.040673 0.000000 0.000000 9.700072 0.847752 2.270583 -76.184219 30.202915 0.959000 -75.001434 -0.002089 33.998486 -8.040680 0.447504 24.595325 -10.083424 -1.118236 2.318751 76.657776 -30.255253 0.765597 74.865974 -0.266658 33.997993 8.235665 -0.251419 24.895681 -52.358601 32.231171 -28.047840 100.346809 -2.290713 -0.122987 18.829819 2.140506 4.011142 -52.115685 -31.814581 28.279161 100.346718 2.291162 0.118062 18.930851 -2.387154 -3.441756 
0.000000 3.996296 -36.005806 -90.001877 0.000000 0.000000 26.163004 0.000000 0.000000 12.137622 -0.119941 -0.639003 16.836052 0.000000 0.000000 7.560760 0.000000 0.000000 10.244249 0.954516 3.236290 -75.896217 30.158541 1.072310 -75.001434 -0.002088 33.998486 -8.558225 0.578336 25.091805 -10.814275 -1.363836 3.305855 76.615761 -30.236504 0.781224 74.799675 -0.399132 33.996395 8.854039 -0.286578 25.543819 -52.174274 31.843473 -28.272947 100.346809 -2.290713 -0.122987 18.907568 2.346079 3.510245 -51.807404 -31.217653 28.621973 100.346718 2.291162 0.118062 19.063290 -2.712418 -2.653802 
0.000000 3.996296 -36.005806 -90.001884 0.000000 0.000000 27.038309 0.000000 0.000000 9.757546 -0.119805 -0.638888 16.447803 0.000000 0.000000 7.080227 0.000000 0.000000 10.786671 1.070454 4.201157 -75.608421 30.113684 1.185324 -75.001450 -0.002089 33.998489 -9.074671 0.713652 25.587133 -11.541043 -1.622032 4.290097 76.573662 -30.217693 0.796828 74.733398 -0.531610 33.994652 9.472053 -0.328732 26.191622 -51.988895 31.456301 -28.498640 100.346809 -2.290714 -0.122987 18.987148 2.551020 3.008857 -51.496880 -30.622259 28.966429 100.346718 2.291162 0.118062 19.200249 -3.035866 -1.864785 
0.000000 3.996296 -36.005806 -90.001877 0.000000 0.000000 27.913622 0.000000 0.000000 7.377470 -0.119663 -0.638778 16.059168 0.000000 0.000000 6.599089 0.000000 0.000000 11.327085 1.195503 5.164924 -75.320854 30.068319 1.298023 -75.001434 -0.002089 33.998486 -9.589946 0.853423 26.081242 -12.263370 -1.892649 5.271124 76.531563 -30.198870 0.812414 74.667107 -0.664087 33.992760 10.089551 -0.377869 26.838934 -51.802464 31.069674 -28.724928 100.346809 -2.290713 -0.122987 19.068550 2.755302 2.506987 -51.184101 -30.028473 29.312519 100.346718 2.291162 0.118062 19.341698 -3.357399 -1.074747 
0.000000 3.996296 -36.005806 -90.001884 0.000000 0.000000 28.788820 0.000000 0.000000 4.999449 -0.119517 -0.638675 15.670143 0.000000 0.000000 6.117360 0.000000 0.000000 11.865244 1.329590 6.127331 -75.033501 30.022465 1.410412 -75.001434 -0.002088 33.998489 -10.103977 0.997615 26.574057 -12.980905 -2.175497 6.248589 76.489365 -30.179979 0.827980 74.600815 -0.796564 33.990707 10.706389 -0.433969 27.485611 -51.614956 30.683598 -28.951790 100.346817 -2.290714 -0.122987 19.151770 2.958901 2.004648 -50.869087 -29.436398 29.660248 100.346725 2.291162 0.118062 19.487606 -3.676916 -0.283733 
0.000000 3.996296 -36.005806 -90.001877 0.000000 0.000000 29.663818 0.000000 0.000000 2.625519 -0.119368 -0.638578 15.280748 0.000000 0.000000 5.635056 0.000000 0.000000 12.400902 1.472633 7.088127 -74.746384 29.976130 1.522489 -75.001434 -0.002089 33.998486 -10.616687 1.146191 27.065491 -13.693307 -2.470369 7.222158 76.447334 -30.161156 0.843529 74.534492 -0.929041 33.988503 11.322403 -0.497007 28.131479 -51.426422 30.298132 -29.179258 100.346809 -2.290713 -0.122987 19.236803 3.161791 1.501850 -50.551838 -28.846109 30.009615 100.346718 2.291162 0.118062 19.637945 -3.994321 0.508211 
0.000000 3.996296 -36.005806 -90.001877 0.000000 0.000000 30.538513 0.000000 0.000000 0.257702 -0.119215 -0.638488 14.890984 0.000000 0.000000 5.152195 0.000000 0.000000 12.933815 1.624539 8.047058 -74.459503 29.929306 1.634241 -75.001434 -0.002090 33.998486 -11.128006 1.299114 27.555483 -14.400245 -2.777042 8.191509 76.405342 -30.142332 0.859057 74.468178 -1.061513 33.986141 11.937449 -0.566953 28.776413 -51.236824 29.913275 -29.407318 100.346809 -2.290713 -0.122987 19.323641 3.363946 0.998604 -50.232395 -28.257727 30.360638 100.346718 2.291162 0.118062 19.792679 -4.309515 1.301039 
0.000000 3.996296 -36.005806 -90.001877 0.000000 0.000000 30.188683 0.000000 0.000000 2.743312 -0.119329 -0.638418 14.500859 0.000000 0.000000 4.668789 0.000000 0.000000 12.413663 0.892023 7.084177 -74.172867 29.882000 1.745672 -75.001442 -0.002090 33.998486 -10.138018 0.530955 26.945713 -13.731209 -1.865579 7.253319 75.889954 -30.063559 1.065313 74.401863 -1.193985 33.983635 10.857163 0.159418 28.024334 -51.046188 29.529062 -29.635979 100.346809 -2.290713 -0.122987 19.412281 3.565341 0.494921 -50.099701 -27.949419 30.542646 100.346718 2.291162 0.118062 19.861822 -4.464497 1.691308 
0.000000 3.996296 -36.005806 -90.001862 0.000000 0.000000 29.838789 0.000000 0.000000 5.238405 -0.119447 -0.638354 14.110387 0.000000 0.000000 4.184863 0.000000 0.000000 11.880758 0.167607 6.113755 -73.886459 29.834206 1.856774 -75.001434 -0.002090 33.998486 -9.138742 -0.227414 26.322021 -13.046663 -0.964034 6.303626 75.375259 -29.983175 1.270595 74.335518 -1.326454 33.980965 9.765796 0.872395 27.257540 -50.854511 29.145508 -29.865242 100.346809 -2.290713 -0.122987 19.502705 3.765949 -0.009187 -49.966251 -27.641447 30.724955 100.346718 2.291162 0.118062 19.932035 -4.619019 2.081890 
0.000000 3.996296 -36.005806 -90.001877 0.000000 0.000000 29.488844 0.000000 0.000000 7.740654 -0.119567 -0.638294 13.719571 0.000000 0.000000 3.700424 0.000000 0.000000 11.335194 -0.548221 5.135805 -73.600304 29.785936 1.967548 -75.001434 -0.002087 33.998486 -8.130222 -0.975413 25.684538 -12.346650 -0.073123 5.342386 74.861244 -29.901186 1.474894 74.269188 -1.458917 33.978153 8.663542 1.571291 26.476274 -50.661808 28.762644 -30.095108 100.346817 -2.290714 -0.122987 19.594917 3.965746 -0.513707 -49.832081 -27.333843 30.907587 100.346725 2.291162 0.118062 20.003330 -4.773075 2.472780 
0.000000 3.996296 -36.005806 -90.001862 0.000000 0.000000 29.138851 0.000000 0.000000 10.247701 -0.119691 -0.638240 13.328424 0.000000 0.000000 3.215493 0.000000 0.000000 10.777079 -1.254976 4.150362 -73.314400 29.737183 2.077987 -75.001434 -0.002089 33.998486 -7.112520 -1.712467 25.033390 -11.631231 0.806444 4.369576 74.347954 -29.817600 1.678176 74.202827 -1.591380 33.975178 7.550636 2.255434 25.680830 -50.468063 28.380489 -30.325583 100.346809 -2.290713 -0.122987 19.688900 4.164708 -1.018628 -49.697159 -27.026590 31.090527 100.346718 2.291162 0.118062 20.075699 -4.926649 2.863971 
0.000000 3.996296 -36.005806 -90.001877 0.000000 0.000000 28.788820 0.000000 0.000000 12.757153 -0.119816 -0.638190 12.936955 0.000000 0.000000 2.730086 0.000000 0.000000 10.206539 -1.952180 3.157471 -73.028763 29.687960 2.188084 -75.001434 -0.002087 33.998486 -6.085719 -2.438007 24.368736 -10.900490 1.673958 3.385199 73.835449 -29.732449 1.880424 74.136467 -1.723834 33.972054 6.427340 2.924165 24.871519 -50.273319 27.999088 -30.556683 100.346817 -2.290714 -0.122987 19.784655 4.362809 -1.523938 -49.561520 -26.719727 31.273790 100.346725 2.291162 0.118062 20.149137 -5.079732 3.255460 
